<svg version="1.1" id="Layer_1" xmlns="http://www.w3.org/2000/svg" xmlns:xlink="http://www.w3.org/1999/xlink" x="0px" y="0px"
	 width="100%" viewBox="0 0 1024 528" enable-background="new 0 0 1024 528" xml:space="preserve">
<path fill="#000000" opacity="1.000000" stroke="none" 
	d="
M225.976212,308.006836 
	C217.561478,314.423615 209.430710,320.625275 200.806335,327.203430 
	C198.955414,321.931976 200.399704,317.388763 199.638992,313.107147 
	C197.571091,301.468170 202.494492,294.241302 212.074020,287.677246 
	C227.851807,276.866089 242.538971,264.468964 257.784607,252.870148 
	C260.457611,250.836548 261.939453,248.284622 263.208801,245.323898 
	C274.560303,218.847092 286.074341,192.439545 297.313416,165.915375 
	C299.542206,160.655457 303.037415,158.594543 308.497009,158.714996 
	C315.157776,158.861969 321.827057,158.824799 328.488464,158.677689 
	C333.346283,158.570389 336.728363,160.306763 338.709717,164.969864 
	C342.421112,173.704636 346.322876,182.360458 350.274628,190.989975 
	C351.389801,193.425217 351.256500,195.321274 349.403900,197.329697 
	C343.194794,204.061081 337.074371,210.874573 330.947479,217.681381 
	C328.491119,220.410355 326.610931,220.153442 324.810669,216.917389 
	C322.501709,212.766830 321.386536,207.985748 318.317322,204.086212 
	C313.256409,211.483429 313.341553,212.095291 319.703827,216.980530 
	C323.535217,219.922455 327.399017,222.827682 331.126251,225.897537 
	C333.379272,227.753174 335.029877,227.695038 336.979980,225.386169 
	C348.802460,211.388412 360.677124,197.433975 372.641602,183.557541 
	C374.830719,181.018585 374.407501,179.425461 371.967377,177.444626 
	C366.976105,173.392746 362.171570,169.110794 357.409088,165.025604 
	C358.809692,162.137238 361.116608,162.337372 362.910431,161.919846 
	C384.473206,156.900970 406.055450,151.964615 427.652557,147.095200 
	C433.684967,145.735092 434.363434,146.348724 434.117950,152.555237 
	C433.223145,175.180252 432.268280,197.802872 431.330536,220.426178 
	C431.290009,221.403839 431.325012,222.422821 430.096680,223.502625 
	C423.349518,219.864334 418.256409,213.738739 411.261810,209.453033 
	C397.826416,225.126953 384.561981,240.601410 371.233795,256.150269 
	C374.194702,259.844666 377.774109,262.034424 381.052155,264.520081 
	C394.458008,274.685455 407.893311,284.814636 421.458954,294.764679 
	C424.611511,297.076965 426.060303,299.680054 425.942535,303.553802 
	C425.770538,309.212433 425.960999,314.881256 425.925507,320.545288 
	C425.914276,322.337921 426.144287,324.243988 424.674866,325.762451 
	C422.373535,326.094818 421.043304,324.307892 419.504211,323.204559 
	C391.877991,303.400970 365.212646,282.319550 338.061157,261.883820 
	C330.874023,256.474365 323.504395,251.296738 316.485535,245.679077 
	C313.244720,243.085220 310.900696,243.301254 307.741272,245.725891 
	C282.901794,264.788391 257.961578,283.719604 233.049530,302.687469 
	C230.796875,304.402618 228.523773,306.090973 225.976212,308.006836 
z"/>
<path fill="#000000" opacity="1.000000" stroke="none" 
	d="
M584.376282,332.337524 
	C557.401794,353.584595 516.294006,334.839111 511.674286,299.184052 
	C508.188934,272.284180 529.099243,239.823868 568.774109,245.229279 
	C594.831238,248.779434 611.199097,268.506622 611.191833,294.956085 
	C611.188477,307.108429 611.224060,319.260895 611.184937,331.413116 
	C611.166870,337.026276 609.129822,339.403564 603.621826,339.844727 
	C600.320618,340.109161 596.974731,339.773163 593.649231,339.784821 
	C588.499878,339.802917 587.636169,334.771790 584.376282,332.337524 
M539.203003,288.973755 
	C539.166687,291.296265 538.965515,293.629883 539.120972,295.939484 
	C540.070862,310.045624 553.849487,319.801880 567.581055,316.155518 
	C578.914490,313.145996 585.821533,302.890350 584.649109,290.812653 
	C583.493835,278.910583 575.116455,270.048767 564.197266,269.177979 
	C551.954834,268.201660 542.399536,275.461609 539.203003,288.973755 
z"/>
<path fill="#000000" opacity="1.000000" stroke="none" 
	d="
M768.556274,377.104736 
	C761.286133,375.058075 759.734802,372.095093 762.448303,365.678589 
	C766.338379,356.479797 770.308838,347.313080 774.404541,338.204437 
	C775.521057,335.721466 775.546326,333.611694 774.455627,331.101013 
	C763.910706,306.827118 753.474365,282.506073 742.999084,258.201874 
	C739.500305,250.084290 741.614868,246.301788 750.301514,246.149918 
	C768.545776,245.830963 765.891113,244.223511 772.444214,260.136841 
	C778.140808,273.970337 783.947083,287.758698 789.967712,302.197235 
	C793.819275,296.126648 795.732178,289.796417 798.332581,283.819733 
	C802.980957,273.136017 807.454895,262.371124 811.727356,251.532013 
	C813.304321,247.531296 815.691406,245.712051 819.981506,245.943207 
	C823.800598,246.148987 827.644836,245.854294 831.469177,246.004715 
	C838.325134,246.274399 840.851685,249.971695 838.188599,256.325928 
	C830.146179,275.515106 821.937195,294.634705 813.745605,313.761078 
	C806.012451,331.816956 798.201782,349.839630 790.459106,367.891449 
	C786.483887,377.159607 786.517334,377.178375 776.491577,377.188080 
	C773.993530,377.190491 771.495544,377.154236 768.556274,377.104736 
z"/>
<path fill="#000000" opacity="1.000000" stroke="none" 
	d="
M442.262634,350.297821 
	C444.158447,347.776398 446.195709,347.511017 448.687622,348.545502 
	C450.204651,349.175323 451.860901,349.618958 453.492828,349.798218 
	C462.518982,350.789551 467.533691,346.490784 467.656921,337.392059 
	C467.814850,325.730011 467.718628,314.064484 467.726746,302.400452 
	C467.737640,286.737244 467.716400,271.073944 467.764008,255.410858 
	C467.785553,248.324493 469.521698,246.679565 476.694092,246.645950 
	C479.693329,246.631897 482.692810,246.606888 485.691895,246.625885 
	C492.528503,246.669205 495.034271,249.121674 495.050323,255.966141 
	C495.096863,275.794861 495.090546,295.623749 495.111481,315.452576 
	C495.119415,322.950867 495.249359,330.450592 495.143646,337.947144 
	C494.792297,362.863495 477.342560,377.310486 452.611481,374.748260 
	C439.643402,373.404724 435.883667,372.634399 440.139038,355.223511 
	C440.528809,353.628784 441.392151,352.149811 442.262634,350.297821 
z"/>
<path fill="#000000" opacity="1.000000" stroke="none" 
	d="
M206.198944,377.075592 
	C214.863663,356.506561 223.576080,336.330475 232.297684,316.158417 
	C233.054443,314.408112 234.487427,313.281067 235.989471,312.187073 
	C253.361664,299.534149 270.710144,286.848694 288.095398,274.213745 
	C289.334198,273.313416 290.375549,271.626190 292.707001,272.589813 
	C292.296875,277.112610 289.833008,280.943512 288.149414,284.974609 
	C275.826202,314.480408 263.304840,343.903442 251.000336,373.416962 
	C249.368408,377.331238 247.177887,379.110565 242.811386,379.011780 
	C232.485367,378.778259 222.150055,378.971832 211.818619,378.946411 
	C209.860519,378.941589 207.765457,379.235962 206.198944,377.075592 
z"/>
<path fill="#000000" opacity="1.000000" stroke="none" 
	d="
M728.155273,236.000153 
	C728.161072,267.646820 728.174072,298.793549 728.172241,329.940247 
	C728.171753,338.143951 726.114929,340.157349 717.776062,340.195618 
	C715.111145,340.207855 712.445190,340.226105 709.781372,340.166809 
	C703.287476,340.022339 701.064697,337.851288 701.034729,331.390686 
	C700.970642,317.566467 700.984863,303.741852 700.980103,289.917419 
	C700.972046,266.265930 700.947205,242.614395 700.985107,218.962967 
	C701.000000,209.665466 702.922424,207.805893 712.108154,207.793594 
	C728.152832,207.772110 728.184143,207.802780 728.175354,224.007355 
	C728.173340,227.838303 728.163269,231.669235 728.155273,236.000153 
z"/>
<path fill="#000000" opacity="1.000000" stroke="none" 
	d="
M660.927612,274.936096 
	C656.647766,279.642151 655.229370,285.023682 655.218994,290.845123 
	C655.194885,304.335541 655.273315,317.826202 655.247803,331.316620 
	C655.235596,337.800629 653.048828,340.004791 646.578796,340.117615 
	C642.750244,340.184418 638.912964,340.192444 635.089905,340.010651 
	C630.935974,339.813110 628.666626,337.532196 628.664307,333.296326 
	C628.649536,306.481842 628.637573,279.667297 628.681335,252.852875 
	C628.688232,248.650818 631.041077,246.440598 635.199890,246.191376 
	C637.026611,246.081909 638.861267,246.074966 640.692383,246.071136 
	C650.732422,246.050156 651.747375,246.870712 653.688110,256.776031 
	C655.724548,256.084412 656.696045,254.253036 658.031555,252.947739 
	C665.450012,245.697296 674.326477,242.812637 684.527771,244.179413 
	C689.701477,244.872589 691.475037,247.176346 690.956604,252.381668 
	C690.561951,256.343628 689.979370,260.323273 689.031250,264.184814 
	C687.758301,269.369659 685.627014,270.520844 680.279419,269.656311 
	C673.175110,268.507782 666.699341,269.769928 660.927612,274.936096 
z"/>
<path fill="#000000" opacity="1.000000" stroke="none" 
	d="
M356.250977,287.708038 
	C371.163971,298.662476 385.650543,309.599243 400.456635,320.084900 
	C405.704071,323.801178 409.280609,328.108795 411.576111,334.176788 
	C416.283905,346.621613 421.702026,358.797119 426.781769,371.102478 
	C427.595459,373.073669 428.724548,374.985046 428.588531,377.596985 
	C425.075134,379.055084 421.229156,378.771149 417.548218,378.803772 
	C408.563751,378.883392 399.574890,378.427063 390.589752,378.485809 
	C387.121643,378.508514 386.056091,376.457428 384.997101,373.883942 
	C373.851349,346.798096 362.638763,319.739655 351.568207,292.623138 
	C350.371277,289.691284 348.057587,286.980133 348.623901,283.157990 
	C352.016357,283.451416 353.558197,286.215515 356.250977,287.708038 
z"/>
<path fill="#000000" opacity="1.000000" stroke="none" 
	d="
M481.869995,205.677521 
	C490.484039,206.651993 495.330627,210.940521 496.743347,218.464035 
	C497.859283,224.406967 494.628479,230.957596 489.099609,233.962143 
	C482.705841,237.436707 474.183960,236.270447 469.233521,231.243347 
	C464.402863,226.337860 463.420105,219.508331 466.861145,213.331802 
	C470.016602,207.667877 475.071198,205.368134 481.869995,205.677521 
z"/>
<path fill="#000000" opacity="1.000000" stroke="none" 
	d="
M309.138824,299.897491 
	C310.939850,304.908020 309.940613,309.731903 310.194092,314.491943 
	C310.211334,314.815887 310.222931,315.235229 310.046234,315.460419 
	C306.332306,320.193420 301.200073,317.144470 296.745117,317.769409 
	C294.238739,318.121063 292.118073,317.116577 292.148010,313.963257 
	C292.149567,313.797729 292.145203,313.631378 292.130219,313.466644 
	C290.816315,299.000183 294.197540,296.184906 309.138824,299.897491 
z"/>
<path fill="#000000" opacity="1.000000" stroke="none" 
	d="
M314.393982,299.815186 
	C319.094849,298.204163 323.590881,299.017578 328.043060,298.992920 
	C330.264008,298.980621 331.282501,300.383026 331.252625,302.573792 
	C331.239014,303.570679 331.298004,304.568817 331.274811,305.565277 
	C330.950256,319.506012 334.031158,317.812592 317.716064,317.998962 
	C314.634460,318.034180 312.983063,316.486572 313.124176,313.441437 
	C313.330627,308.985626 313.758850,304.540131 314.393982,299.815186 
z"/>
<path fill="#000000" opacity="1.000000" stroke="none" 
	d="
M322.052429,295.910339 
	C313.453094,295.988342 313.008209,295.556671 313.073853,287.646515 
	C313.079346,286.981354 313.014252,286.306641 313.102509,285.652649 
	C313.484589,282.822205 311.855560,279.010620 315.104919,277.500702 
	C318.175812,276.073730 321.090057,278.580902 323.822052,280.103912 
	C325.912476,281.269287 327.465332,283.048492 328.561066,285.123474 
	C330.029175,287.903564 332.086609,291.005890 330.674072,294.017273 
	C329.101105,297.370575 325.333038,295.526215 322.052429,295.910339 
z"/>
<path fill="#000000" opacity="1.000000" stroke="none" 
	d="
M305.739929,277.465271 
	C308.972046,276.587463 310.178253,277.873108 310.202576,280.627838 
	C310.211365,281.622925 310.218811,282.618042 310.224579,283.613129 
	C310.301208,296.807037 309.480591,297.482361 296.148285,296.060852 
	C293.372437,295.764893 292.333679,294.543854 292.644989,291.867981 
	C293.546082,284.124176 298.326141,279.857544 305.739929,277.465271 
z"/>
</svg>